<svg xmlns="http://www.w3.org/2000/svg" viewBox="0 0 17 17"><path d="m11.5 8c.8 0 1.5-.7 1.5-1.5 0-.8-.7-1.5-1.5-1.5-.8 0-1.5.7-1.5 1.5 0 .8.7 1.5 1.5 1.5m-6 0c.8 0 1.5-.7 1.5-1.5 0-.8-.7-1.5-1.5-1.5-.8 0-1.5.7-1.5 1.5 0 .8.7 1.5 1.5 1.5m3-8c-4.7 0-8.5 3.8-8.5 8.5 0 4.7 3.8 8.5 8.5 8.5 4.7 0 8.5-3.8 8.5-8.5 0-4.7-3.8-8.5-8.5-8.5m0 16c-4.1 0-7.5-3.4-7.5-7.5s3.4-7.5 7.5-7.5 7.5 3.4 7.5 7.5-3.4 7.5-7.5 7.5m4.4-7c-.3 2.2-2.1 4-4.4 4-2.3 0-4.2-1.8-4.4-4h-1c.3 2.8 2.6 5 5.4 5 2.9 0 5.2-2.2 5.4-5h-1"/></svg>