<svg xmlns="http://www.w3.org/2000/svg" viewBox="0 0 19 17"><path d="m17 0h-12c-1.1 0-2 .9-2 2v6.1c.3-.1.7-.1 1-.1v-6c0-.6.4-1 1-1h12c.6 0 1 .4 1 1v12c0 .6-.4 1-1 1h-7.4c-.2.4-.4.7-.6 1h8c1.1 0 2-.9 2-2v-12c0-1.1-.9-2-2-2m-12 9h-1c-2.2 0-4 1.8-4 4s1.8 4 4 4h1c2.2 0 4-1.8 4-4s-1.8-4-4-4m-2 6v-4l4 2-4 2m3.5-10h9c.3 0 .5-.2.5-.5s-.2-.5-.5-.5h-9c-.3 0-.5.2-.5.5s.2.5.5.5m0 3h9c.3 0 .5-.2.5-.5s-.2-.5-.5-.5h-9c-.3 0-.5.2-.5.5s.2.5.5.5m9 2h-5c-.3 0-.5.2-.5.5s.2.5.5.5h5c.3 0 .5-.2.5-.5s-.2-.5-.5-.5"/></svg>